<?xml version="1.0" encoding="UTF-8"?>
<svg version="1.1" xmlns="http://www.w3.org/2000/svg" width="500" height="500">
<path d="M0 0 C165 0 330 0 500 0 C500 165 500 330 500 500 C335 500 170 500 0 500 C0 335 0 170 0 0 Z " fill="#FEFEFE" transform="translate(0,0)"/>
<path d="M0 0 C10.22756784 0.25024574 20.42107806 0.21233606 30.64835771 -0.03022548 C130.70332874 -2.34126614 130.70332874 -2.34126614 159.73669734 24.96549008 C170.09730073 35.15904995 178.99063143 46.6778323 186.75642713 58.94028405 C188.06700996 61.17716774 188.06700996 61.17716774 190.23991045 62.06474523 C190.23991045 138.95474523 190.23991045 215.84474523 190.23991045 295.06474523 C171.75991045 295.06474523 153.27991045 295.06474523 134.23991045 295.06474523 C134.23991045 218.50474523 134.23991045 141.94474523 134.23991045 63.06474523 C103.87991045 63.06474523 73.51991045 63.06474523 42.23991045 63.06474523 C42.23991045 114.21474523 42.23991045 165.36474523 42.23991045 218.06474523 C23.75991045 218.06474523 5.27991045 218.06474523 -13.76008955 218.06474523 C-13.76008955 166.91474523 -13.76008955 115.76474523 -13.76008955 63.06474523 C-43.79008955 63.06474523 -73.82008955 63.06474523 -104.76008955 63.06474523 C-104.76008955 139.62474523 -104.76008955 216.18474523 -104.76008955 295.06474523 C-123.24008955 295.06474523 -141.72008955 295.06474523 -160.76008955 295.06474523 C-161.98304081 266.31837798 -162.99405485 237.59090097 -163.56868267 208.82486937 C-163.63743511 205.39574935 -163.7086263 201.96668403 -163.78132979 198.53764562 C-163.79575686 197.85525945 -163.81018394 197.17287328 -163.82504819 196.46980874 C-164.03243343 186.89957812 -164.37100484 177.34194052 -164.81560642 167.77991071 C-169.80641288 60.2582859 -169.80641288 60.2582859 -143.84794966 30.91517095 C-108.27744201 -6.92765 -47.52429059 -1.1829576 0 0 Z " fill="#010101" transform="translate(235.7600895538926,89.9352547749877)"/>
</svg>
